<svg xmlns="http://www.w3.org/2000/svg" version="1.1" xmlns:xlink="http://www.w3.org/1999/xlink" xmlns:svgjs="http://svgjs.dev/svgjs" width="250" height="250" preserveAspectRatio="none" viewBox="0 0 250 250"><g mask="url(&quot;#SvgjsMask1006&quot;)" fill="none"><rect width="250" height="250" x="0" y="0" fill="#0e2a47"></rect><path d="M53.04 94.01 a21.23 21.23 0 1 0 42.46 0 a21.23 21.23 0 1 0 -42.46 0z" fill="#037b0b"></path><path d="M90.14 122.98L113.34 122.98L113.34 146.18L90.14 146.18z" stroke="#037b0b"></path><path d="M183.43 219.92L187.04 219.92L187.04 223.53L183.43 223.53z" fill="#e73635"></path><path d="M193.36 213.83 a20.43 20.43 0 1 0 40.86 0 a20.43 20.43 0 1 0 -40.86 0z" fill="#e73635"></path><path d="M16.34 38.95L28.33 38.95L28.33 50.66L16.34 50.66z" fill="#d3b714"></path><path d="M135.06 155.73a21.46 21.46 0 1 0 26.36 33.87z" fill="#037b0b"></path><path d="M208.84 85.33L218.05 85.33L218.05 98.56L208.84 98.56z" stroke="#d3b714"></path><path d="M90.66 119.14L113.2 119.14L113.2 141.68L90.66 141.68z" stroke="#037b0b"></path><path d="M212.7 204.05 a5.46 5.46 0 1 0 10.92 0 a5.46 5.46 0 1 0 -10.92 0z" fill="#d3b714"></path><path d="M200.87 47.24a6.21 6.21 0 1 0 12.28-1.9z" fill="#037b0b"></path><path d="M181.34 143.81L186.19 143.81L186.19 144.59L181.34 144.59z" stroke="#037b0b"></path><path d="M59.23 15.23a23.66 23.66 0 1 0-44.65 15.68z" stroke="#e73635"></path><path d="M131.2 34.71a3.24 3.24 0 1 0-3.26 5.6z" stroke="#037b0b"></path></g><defs><mask id="SvgjsMask1006"><rect width="250" height="250" fill="#ffffff"></rect></mask></defs></svg>